<?xml version="1.0" encoding="utf-8"?>
<svg viewBox="0 0 264.56 60.44" width="264.56" height="60.44" xmlns="http://www.w3.org/2000/svg">
  <defs>
    <style>.cls-1{fill:#2ce4b8;}.cls-2{fill:#0b2e25;}</style>
  </defs>
  <g id="Layer_2" data-name="Layer 2" transform="matrix(1, 0, 0, 0.9999999999999999, 9.999999859116294, 9.999999859116286)">
    <g id="Layer_4" data-name="Layer 4">
      <path class="cls-1" d="M203.12,29v-5.4c0-7.27,4.38-11.44,11.23-11.44a10,10,0,0,1,6.74,2.3V12.63h4.54V40h-4.54V38.14a10,10,0,0,1-6.74,2.3C207.5,40.44,203.12,36.26,203.12,29Zm11.23,7.17c3.69,0,6.74-1.61,6.74-7.17v-5.4c0-5-3.05-7.17-6.74-7.17-4,0-6.69,2.14-6.69,7.17V29C207.66,34.55,210.39,36.16,214.35,36.16Z"/>
      <path class="cls-1" d="M239.54,1.72h5V7h-5Zm.26,10.91h4.5V40h-4.5Z"/>
      <path class="cls-2" d="M0,34V0H4.55V35.3H9.2v4.27h-3C2,39.57,0,37.38,0,34Z" style="fill: rgb(255, 255, 255);"/>
      <path class="cls-2" d="M51.5,28.61v-5.4c0-7.27,4.44-11.44,11.28-11.44,6.42,0,11.07,3.63,11.18,10.1H69.42c-.11-4.06-3-5.83-6.64-5.83-4,0-6.73,2.14-6.73,7.17v5.4c0,5.56,2.78,7.17,6.73,7.17,3.59,0,6.53-1.34,6.64-5.72H74c-.11,6.36-4.81,10-11.18,10C55.94,40.06,51.5,35.88,51.5,28.61Z" style="fill: rgb(255, 255, 255);"/>
      <path class="cls-2" d="M84.66,28.61v-5.4c0-7.27,4.43-11.44,11.28-11.44,6.42,0,11.07,3.63,11.18,10.1h-4.55c-.11-4.06-3-5.83-6.63-5.83-4,0-6.74,2.14-6.74,7.17v5.4c0,5.56,2.78,7.17,6.74,7.17,3.58,0,6.52-1.34,6.63-5.72h4.55c-.11,6.36-4.82,10-11.18,10C89.09,40.06,84.66,35.88,84.66,28.61Z" style="fill: rgb(255, 255, 255);"/>
      <path class="cls-2" d="M136.85,12.25h4.55V29.73c0,6.26-3.85,10.33-11,10.33s-11-4.07-11-10.33V12.25H124V28.72c0,4.6,2,7.06,6.47,7.06s6.42-2.46,6.42-7.06Z" style="fill: rgb(255, 255, 255);"/>
      <path class="cls-2" d="M29.57,11.77h-.14v4.28h.14c4,0,6.69,2.14,6.69,7.17v5.4c0,5.56-2.73,7.17-6.69,7.17s-6.73-1.61-6.73-7.17v-5.4c0-.4,0-.77.05-1.13H18.33c0,.37,0,.74,0,1.13v5.4c0,7.27,4.44,11.45,11.28,11.45S40.8,35.88,40.8,28.61v-5.4C40.8,15.94,36.42,11.77,29.57,11.77Z" style="fill: rgb(255, 255, 255);"/>
      <rect class="cls-1" x="184.75" y="31.16" width="9.1" height="9.1"/>
      <path class="cls-2" d="M161.08,26.74l6.41,1.6c2.12.56,3.29,1.51,3.57,2.82h4.59c-.26-3.76-2.79-5.93-7.19-7l-5.83-1.44c-1.93-.49-3.48-1.18-3.48-3.21s1.82-3.59,5.46-3.59c3.42,0,5.88,1.5,6,4.71H175c0-5.19-4.22-8.82-10.42-8.82s-9.79,3.36-9.79,7.7C154.82,23.37,157.17,25.78,161.08,26.74Z" style="fill: rgb(255, 255, 255);"/>
      <path class="cls-2" d="M166.59,35.66a13.14,13.14,0,0,1-1.72.12c-3.9,0-6.68-1.61-6.68-5.24H153.7c.16,6.36,4.7,9.52,11.17,9.52.6,0,1.16,0,1.72-.09Z" style="fill: rgb(255, 255, 255);"/>
    </g>
  </g>
</svg>