<svg width="88" height="49" viewBox="0 0 88 49" fill="none" xmlns="http://www.w3.org/2000/svg">
<path fill-rule="evenodd" clip-rule="evenodd" d="M24.662 25.891V36.373C24.662 37.709 23.943 38.428 22.607 38.428H20.552C19.216 38.428 18.497 37.709 18.497 36.373V25.737C18.497 21.524 15.927 18.647 12.485 18.647C9.145 18.647 6.165 20.239 6.165 24.967V36.373C6.165 37.709 5.446 38.428 4.111 38.428H2.055C0.719 38.428 0 37.709 0 36.373V2.64201C0 1.30601 0.72 0.587006 2.055 0.587006H4.111C5.446 0.587006 6.166 1.30601 6.166 2.64201V12.532C6.166 14.177 6.834 14.434 8.066 13.662C9.3 12.892 10.79 12.482 12.486 12.482C20.398 12.482 24.662 18.235 24.662 25.891ZM58.65 13.432C59.986 13.432 60.705 14.152 60.705 15.487V39.353C60.705 44.697 56.03 48.704 49.761 48.704C46.987 48.704 44.161 48.191 42.105 47.009C40.975 46.341 40.924 45.211 41.745 44.131L42.928 42.59C43.698 41.562 44.572 41.562 45.754 42.025C46.884 42.435 48.168 42.539 49.761 42.539C52.741 42.539 54.54 40.483 54.54 39.353V36.887C53.153 38.017 51.354 38.685 49.247 38.685C41.335 38.685 37.07 32.931 37.07 25.275V15.487C37.07 14.151 37.79 13.432 39.126 13.432H41.181C42.517 13.432 43.236 14.152 43.236 15.487V25.429C43.236 29.642 45.805 32.519 49.247 32.519C51.405 32.519 53.409 31.851 54.54 30.156V15.487C54.54 14.151 55.259 13.432 56.595 13.432H58.65ZM79.769 30.893L79.719 23.301C79.369 19.804 76.872 19.205 74.624 19.205C72.177 19.205 68.83 21.453 68.83 26.098C68.83 29.394 71.078 32.691 75.223 32.691C77.471 32.691 78.87 31.792 79.769 30.893ZM87.361 33.94L86.961 36.437C86.761 37.687 85.963 38.335 84.664 38.086C83.016 37.836 81.867 37.486 81.068 36.737C79.619 37.687 77.671 38.685 75.223 38.685C66.883 38.685 62.786 31.942 62.786 26.248C62.786 18.805 66.932 13.211 74.624 13.211C81.417 13.211 85.763 17.656 85.763 22.851V27.397C85.763 28.995 85.763 30.743 86.363 31.642C86.912 32.542 87.561 32.841 87.361 33.94ZM34.984 4.79601C34.9925 5.3408 34.8925 5.88185 34.6899 6.38764C34.4873 6.89344 34.1861 7.35387 33.8039 7.74214C33.4216 8.13041 32.9659 8.43876 32.4634 8.64923C31.9608 8.85971 31.4214 8.9681 30.8765 8.9681C30.3316 8.9681 29.7922 8.85971 29.2896 8.64923C28.7871 8.43876 28.3314 8.13041 27.9491 7.74214C27.5669 7.35387 27.2657 6.89344 27.0631 6.38764C26.8605 5.88185 26.7605 5.3408 26.769 4.79601C26.7858 3.71773 27.226 2.68931 27.9945 1.93273C28.7629 1.17615 29.7981 0.752098 30.8765 0.752098C31.9549 0.752098 32.9901 1.17615 33.7585 1.93273C34.527 2.68931 34.9672 3.71773 34.984 4.79601Z" fill="#6A44B9"/>
<path fill-rule="evenodd" clip-rule="evenodd" d="M33.95 15.651C33.95 13.193 31.64 12.791 29.477 11.961C26.77 10.924 23.675 7.93301 23.708 4.79601C23.708 3.46001 22.988 2.74101 21.653 2.74101H21.321C19.985 2.74101 19.266 3.46101 19.266 4.79601V5.97601C19.266 8.72101 20.852 11.168 22.688 13.016C25.621 15.638 27.452 19.542 27.784 24.309V36.373C27.784 37.709 28.503 38.428 29.839 38.428H31.894C33.23 38.428 33.949 37.709 33.949 36.373V15.65" fill="#6A44B9"/>
</svg>
